Cutive-Regular-OTF.ufo
<glyph name="K" format="1">
  <advance width="2032"/>
  <unicode hex="004B"/>
  <outline>
    <contour>
      <point x="36" y="84" type="curve" smooth="yes"/>
      <point x="36" y="134"/>
      <point x="57" y="176"/>
      <point x="108" y="176" type="curve" smooth="yes"/>
      <point x="327" y="176" type="line"/>
      <point x="327" y="1538" type="line"/>
      <point x="108" y="1538" type="line" smooth="yes"/>
      <point x="57" y="1538"/>
      <point x="36" y="1580"/>
      <point x="36" y="1630" type="curve" smooth="yes"/>
      <point x="36" y="1674"/>
      <point x="63" y="1714"/>
      <point x="110" y="1714" type="curve" smooth="yes"/>
      <point x="761" y="1714" type="line" smooth="yes"/>
      <point x="808" y="1714"/>
      <point x="835" y="1674"/>
      <point x="835" y="1630" type="curve" smooth="yes"/>
      <point x="835" y="1580"/>
      <point x="815" y="1538"/>
      <point x="764" y="1538" type="curve" smooth="yes"/>
      <point x="561" y="1538" type="line"/>
      <point x="561" y="842" type="line"/>
      <point x="1353" y="1499" type="line" smooth="yes"/>
      <point x="1359" y="1505"/>
      <point x="1368" y="1517"/>
      <point x="1368" y="1530" type="curve" smooth="yes"/>
      <point x="1368" y="1545"/>
      <point x="1357" y="1552"/>
      <point x="1335" y="1552" type="curve" smooth="yes"/>
      <point x="1265" y="1552" type="line" smooth="yes"/>
      <point x="1217" y="1552"/>
      <point x="1194" y="1578"/>
      <point x="1194" y="1630" type="curve" smooth="yes"/>
      <point x="1194" y="1674"/>
      <point x="1220" y="1714"/>
      <point x="1267" y="1714" type="curve" smooth="yes"/>
      <point x="1796" y="1714" type="line" smooth="yes"/>
      <point x="1843" y="1714"/>
      <point x="1869" y="1674"/>
      <point x="1869" y="1630" type="curve" smooth="yes"/>
      <point x="1869" y="1580"/>
      <point x="1849" y="1538"/>
      <point x="1798" y="1538" type="curve" smooth="yes"/>
      <point x="1640" y="1538" type="line"/>
      <point x="1034" y="1016" type="line"/>
      <point x="1820" y="176" type="line"/>
      <point x="1962" y="176" type="line" smooth="yes"/>
      <point x="2013" y="176"/>
      <point x="2033" y="134"/>
      <point x="2033" y="84" type="curve" smooth="yes"/>
      <point x="2033" y="40"/>
      <point x="2007" y="0"/>
      <point x="1960" y="0" type="curve" smooth="yes"/>
      <point x="1349" y="0" type="line" smooth="yes"/>
      <point x="1302" y="0"/>
      <point x="1276" y="40"/>
      <point x="1276" y="84" type="curve" smooth="yes"/>
      <point x="1276" y="134"/>
      <point x="1296" y="176"/>
      <point x="1347" y="176" type="curve" smooth="yes"/>
      <point x="1546" y="176" type="line"/>
      <point x="884" y="911" type="line"/>
      <point x="561" y="662" type="line"/>
      <point x="561" y="176" type="line"/>
      <point x="845" y="176" type="line" smooth="yes"/>
      <point x="896" y="176"/>
      <point x="917" y="134"/>
      <point x="917" y="84" type="curve" smooth="yes"/>
      <point x="917" y="40"/>
      <point x="890" y="0"/>
      <point x="843" y="0" type="curve" smooth="yes"/>
      <point x="110" y="0" type="line" smooth="yes"/>
      <point x="63" y="0"/>
      <point x="36" y="40"/>
    </contour>
  </outline>
</glyph>
<glyph name="L" format="1">
  <advance width="1838"/>
  <unicode hex="004C"/>
  <outline>
    <contour>
      <point x="938" y="1630" type="curve" smooth="yes"/>
      <point x="938" y="1580"/>
      <point x="917" y="1538"/>
      <point x="866" y="1538" type="curve" smooth="yes"/>
      <point x="643" y="1538" type="line"/>
      <point x="643" y="176" type="line"/>
      <point x="1347" y="176" type="line" smooth="yes"/>
      <point x="1461" y="176"/>
      <point x="1553" y="197"/>
      <point x="1562" y="303" type="curve"/>
      <point x="1591" y="584" type="line" smooth="yes"/>
      <point x="1596" y="628"/>
      <point x="1626" y="647"/>
      <point x="1673" y="647" type="curve" smooth="yes"/>
      <point x="1722" y="647"/>
      <point x="1765" y="620"/>
      <point x="1765" y="567" type="curve"/>
      <point x="1720" y="68" type="line" smooth="yes"/>
      <point x="1716" y="30"/>
      <point x="1696" y="0"/>
      <point x="1659" y="0" type="curve" smooth="yes"/>
      <point x="110" y="0" type="line" smooth="yes"/>
      <point x="63" y="0"/>
      <point x="36" y="40"/>
      <point x="36" y="84" type="curve" smooth="yes"/>
      <point x="36" y="134"/>
      <point x="57" y="176"/>
      <point x="108" y="176" type="curve" smooth="yes"/>
      <point x="409" y="176" type="line"/>
      <point x="409" y="1538" type="line"/>
      <point x="170" y="1538" type="line" smooth="yes"/>
      <point x="119" y="1538"/>
      <point x="98" y="1580"/>
      <point x="98" y="1630" type="curve" smooth="yes"/>
      <point x="98" y="1674"/>
      <point x="125" y="1714"/>
      <point x="172" y="1714" type="curve" smooth="yes"/>
      <point x="864" y="1714" type="line" smooth="yes"/>
      <point x="911" y="1714"/>
      <point x="938" y="1674"/>
    </contour>
  </outline>
</glyph>
<glyph name="M" format="1">
  <advance width="2417"/>
  <unicode hex="004D"/>
  <outline>
    <contour>
      <point x="1640" y="84" type="curve" smooth="yes"/>
      <point x="1640" y="134"/>
      <point x="1661" y="176"/>
      <point x="1712" y="176" type="curve" smooth="yes"/>
      <point x="1894" y="176" type="line"/>
      <point x="1894" y="1235" type="line"/>
      <point x="1290" y="102" type="line"/>
      <point x="1277" y="67"/>
      <point x="1242" y="37"/>
      <point x="1196" y="37" type="curve" smooth="yes"/>
      <point x="1155" y="37"/>
      <point x="1120" y="63"/>
      <point x="1106" y="92" type="curve" smooth="yes"/>
      <point x="540" y="1249" type="line"/>
      <point x="540" y="176" type="line"/>
      <point x="743" y="176" type="line" smooth="yes"/>
      <point x="794" y="176"/>
      <point x="815" y="134"/>
      <point x="815" y="84" type="curve" smooth="yes"/>
      <point x="815" y="40"/>
      <point x="788" y="0"/>
      <point x="741" y="0" type="curve" smooth="yes"/>
      <point x="110" y="0" type="line" smooth="yes"/>
      <point x="63" y="0"/>
      <point x="36" y="40"/>
      <point x="36" y="84" type="curve" smooth="yes"/>
      <point x="36" y="134"/>
      <point x="57" y="176"/>
      <point x="108" y="176" type="curve" smooth="yes"/>
      <point x="331" y="176" type="line"/>
      <point x="331" y="1538" type="line"/>
      <point x="129" y="1538" type="line" smooth="yes"/>
      <point x="78" y="1538"/>
      <point x="57" y="1580"/>
      <point x="57" y="1630" type="curve" smooth="yes"/>
      <point x="57" y="1674"/>
      <point x="84" y="1714"/>
      <point x="131" y="1714" type="curve" smooth="yes"/>
      <point x="467" y="1714" type="line" smooth="yes"/>
      <point x="503" y="1714"/>
      <point x="522" y="1688"/>
      <point x="534" y="1663" type="curve" smooth="yes"/>
      <point x="1196" y="328" type="line"/>
      <point x="1902" y="1671" type="line" smooth="yes"/>
      <point x="1914" y="1694"/>
      <point x="1934" y="1714"/>
      <point x="1968" y="1714" type="curve" smooth="yes"/>
      <point x="2287" y="1714" type="line" smooth="yes"/>
      <point x="2334" y="1714"/>
      <point x="2361" y="1674"/>
      <point x="2361" y="1630" type="curve" smooth="yes"/>
      <point x="2361" y="1580"/>
      <point x="2340" y="1538"/>
      <point x="2289" y="1538" type="curve" smooth="yes"/>
      <point x="2107" y="1538" type="line"/>
      <point x="2107" y="176" type="line"/>
      <point x="2310" y="176" type="line" smooth="yes"/>
      <point x="2361" y="176"/>
      <point x="2381" y="134"/>
      <point x="2381" y="84" type="curve" smooth="yes"/>
      <point x="2381" y="40"/>
      <point x="2355" y="0"/>
      <point x="2308" y="0" type="curve" smooth="yes"/>
      <point x="1714" y="0" type="line" smooth="yes"/>
      <point x="1667" y="0"/>
      <point x="1640" y="40"/>
    </contour>
  </outline>
</glyph>
<glyph name="N" format="1">
  <advance width="2024"/>
  <unicode hex="004E"/>
  <outline>
    <contour>
      <point x="36" y="1630" type="curve" smooth="yes"/>
      <point x="36" y="1674"/>
      <point x="63" y="1714"/>
      <point x="110" y="1714" type="curve" smooth="yes"/>
      <point x="573" y="1714" type="line" smooth="yes"/>
      <point x="605" y="1714"/>
      <point x="620" y="1704"/>
      <point x="632" y="1679" type="curve"/>
      <point x="1511" y="426" type="line"/>
      <point x="1511" y="1538" type="line"/>
      <point x="1331" y="1538" type="line" smooth="yes"/>
      <point x="1280" y="1538"/>
      <point x="1259" y="1580"/>
      <point x="1259" y="1630" type="curve" smooth="yes"/>
      <point x="1259" y="1674"/>
      <point x="1286" y="1714"/>
      <point x="1333" y="1714" type="curve" smooth="yes"/>
      <point x="1915" y="1714" type="line" smooth="yes"/>
      <point x="1962" y="1714"/>
      <point x="1988" y="1674"/>
      <point x="1988" y="1630" type="curve" smooth="yes"/>
      <point x="1988" y="1580"/>
      <point x="1968" y="1538"/>
      <point x="1917" y="1538" type="curve" smooth="yes"/>
      <point x="1718" y="1538" type="line"/>
      <point x="1718" y="53" type="line" smooth="yes"/>
      <point x="1718" y="2"/>
      <point x="1677" y="-37"/>
      <point x="1628" y="-37" type="curve" smooth="yes"/>
      <point x="1585" y="-37"/>
      <point x="1556" y="-13"/>
      <point x="1536" y="16" type="curve" smooth="yes"/>
      <point x="518" y="1456" type="line"/>
      <point x="518" y="176" type="line"/>
      <point x="694" y="176" type="line" smooth="yes"/>
      <point x="745" y="176"/>
      <point x="766" y="134"/>
      <point x="766" y="84" type="curve" smooth="yes"/>
      <point x="766" y="40"/>
      <point x="739" y="0"/>
      <point x="692" y="0" type="curve" smooth="yes"/>
      <point x="110" y="0" type="line" smooth="yes"/>
      <point x="63" y="0"/>
      <point x="36" y="40"/>
      <point x="36" y="84" type="curve" smooth="yes"/>
      <point x="36" y="134"/>
      <point x="57" y="176"/>
      <point x="108" y="176" type="curve" smooth="yes"/>
      <point x="307" y="176" type="line"/>
      <point x="307" y="1538" type="line"/>
      <point x="108" y="1538" type="line" smooth="yes"/>
      <point x="57" y="1538"/>
      <point x="36" y="1580"/>
    </contour>
  </outline>
</glyph>
<glyph name="Z" format="1">
  <advance width="1646"/>
  <unicode hex="005A"/>
  <outline>
    <contour>
      <point x="151" y="1239" type="curve" smooth="yes"/>
      <point x="150" y="1634" type="line"/>
      <point x="151" y="1675"/>
      <point x="175" y="1714"/>
      <point x="253" y="1714" type="curve" smooth="yes"/>
      <point x="1383" y="1714" type="line" smooth="yes"/>
      <point x="1430" y="1714"/>
      <point x="1457" y="1674"/>
      <point x="1457" y="1630" type="curve" smooth="yes"/>
      <point x="1457" y="1603"/>
      <point x="1453" y="1579"/>
      <point x="1441" y="1565" type="curve"/>
      <point x="378" y="176" type="line"/>
      <point x="1314" y="176" type="line"/>
      <point x="1390" y="547" type="line"/>
      <point x="1403" y="591"/>
      <point x="1442" y="623"/>
      <point x="1492" y="623" type="curve" smooth="yes"/>
      <point x="1534" y="623"/>
      <point x="1566" y="594"/>
      <point x="1566" y="549" type="curve" smooth="yes"/>
      <point x="1566" y="535"/>
      <point x="1564" y="522"/>
      <point x="1560" y="510" type="curve"/>
      <point x="1517" y="78" type="line"/>
      <point x="1503" y="30"/>
      <point x="1482" y="0"/>
      <point x="1435" y="0" type="curve" smooth="yes"/>
      <point x="155" y="0" type="line" smooth="yes"/>
      <point x="112" y="0"/>
      <point x="79" y="53"/>
      <point x="79" y="102" type="curve" smooth="yes"/>
      <point x="79" y="137"/>
      <point x="94" y="175"/>
      <point x="124" y="213" type="curve" smooth="yes"/>
      <point x="1142" y="1538" type="line"/>
      <point x="345" y="1538" type="line"/>
      <point x="306" y="1241" type="line"/>
      <point x="292" y="1202"/>
      <point x="266" y="1165"/>
      <point x="224" y="1165" type="curve" smooth="yes"/>
      <point x="183" y="1165"/>
      <point x="151" y="1196"/>
    </contour>
  </outline>
</glyph>
<glyph name="d" format="1">
  <advance width="1497"/>
  <unicode hex="0064"/>
  <outline>
    <contour>
      <point x="292" y="582" type="curve" smooth="yes"/>
      <point x="292" y="349"/>
      <point x="410" y="145"/>
      <point x="642" y="145" type="curve" smooth="yes"/>
      <point x="801" y="145"/>
      <point x="917" y="224"/>
      <point x="988" y="324" type="curve"/>
      <point x="988" y="881" type="line"/>
      <point x="904" y="967"/>
      <point x="788" y="1018"/>
      <point x="632" y="1018" type="curve" smooth="yes"/>
      <point x="406" y="1018"/>
      <point x="292" y="808"/>
    </contour>
    <contour>
      <point x="70" y="582" type="curve" smooth="yes"/>
      <point x="70" y="924"/>
      <point x="282" y="1188"/>
      <point x="623" y="1188" type="curve" smooth="yes"/>
      <point x="782" y="1188"/>
      <point x="892" y="1132"/>
      <point x="988" y="1055" type="curve"/>
      <point x="988" y="1524" type="line"/>
      <point x="752" y="1462" type="line"/>
      <point x="746" y="1462"/>
      <point x="748" y="1460"/>
      <point x="742" y="1460" type="curve" smooth="yes"/>
      <point x="700" y="1460"/>
      <point x="662" y="1505"/>
      <point x="662" y="1546" type="curve" smooth="yes"/>
      <point x="662" y="1603"/>
      <point x="696" y="1613"/>
      <point x="740" y="1626" type="curve" smooth="yes"/>
      <point x="1125" y="1737" type="line" smooth="yes"/>
      <point x="1128" y="1738"/>
      <point x="1133" y="1739"/>
      <point x="1140" y="1739" type="curve" smooth="yes"/>
      <point x="1168" y="1739"/>
      <point x="1193" y="1720"/>
      <point x="1193" y="1690" type="curve" smooth="yes"/>
      <point x="1193" y="176" type="line"/>
      <point x="1338" y="197" type="line" smooth="yes"/>
      <point x="1345" y="198"/>
      <point x="1354" y="199"/>
      <point x="1365" y="199" type="curve" smooth="yes"/>
      <point x="1418" y="199"/>
      <point x="1453" y="172"/>
      <point x="1453" y="125" type="curve" smooth="yes"/>
      <point x="1453" y="16"/>
      <point x="1300" y="22"/>
      <point x="1213" y="12" type="curve"/>
      <point x="1161" y="4"/>
      <point x="1088" y="-10"/>
      <point x="1045" y="-10" type="curve" smooth="yes"/>
      <point x="998" y="-10"/>
      <point x="988" y="32"/>
      <point x="988" y="78" type="curve" smooth="yes"/>
      <point x="988" y="150" type="line"/>
      <point x="912" y="58"/>
      <point x="785" y="-25"/>
      <point x="628" y="-25" type="curve" smooth="yes"/>
      <point x="275" y="-25"/>
      <point x="70" y="231"/>
    </contour>
  </outline>
</glyph>
<glyph name="q" format="1">
  <advance width="1369"/>
  <unicode hex="0071"/>
  <outline>
    <contour>
      <point x="990" y="1006" type="curve"/>
      <point x="1000" y="1086"/>
      <point x="1014" y="1133"/>
      <point x="1099" y="1133" type="curve" smooth="yes"/>
      <point x="1146" y="1133"/>
      <point x="1168" y="1081"/>
      <point x="1168" y="1028" type="curve" smooth="yes"/>
      <point x="1168" y="-399" type="line"/>
      <point x="1293" y="-399" type="line" smooth="yes"/>
      <point x="1345" y="-399"/>
      <point x="1369" y="-439"/>
      <point x="1369" y="-489" type="curve" smooth="yes"/>
      <point x="1369" y="-540"/>
      <point x="1343" y="-575"/>
      <point x="1287" y="-575" type="curve" smooth="yes"/>
      <point x="763" y="-575" type="line" smooth="yes"/>
      <point x="716" y="-575"/>
      <point x="689" y="-536"/>
      <point x="689" y="-492" type="curve" smooth="yes"/>
      <point x="689" y="-442"/>
      <point x="710" y="-399"/>
      <point x="761" y="-399" type="curve" smooth="yes"/>
      <point x="963" y="-399" type="line"/>
      <point x="963" y="109" type="line"/>
      <point x="880" y="31"/>
      <point x="778" y="-25"/>
      <point x="628" y="-25" type="curve" smooth="yes"/>
      <point x="282" y="-25"/>
      <point x="70" y="234"/>
      <point x="70" y="582" type="curve" smooth="yes"/>
      <point x="70" y="930"/>
      <point x="265" y="1188"/>
      <point x="607" y="1188" type="curve" smooth="yes"/>
      <point x="771" y="1188"/>
      <point x="907" y="1101"/>
    </contour>
    <contour>
      <point x="292" y="582" type="curve" smooth="yes"/>
      <point x="292" y="352"/>
      <point x="404" y="145"/>
      <point x="628" y="145" type="curve" smooth="yes"/>
      <point x="782" y="145"/>
      <point x="888" y="200"/>
      <point x="963" y="283" type="curve"/>
      <point x="963" y="840" type="line"/>
      <point x="892" y="943"/>
      <point x="784" y="1018"/>
      <point x="621" y="1018" type="curve" smooth="yes"/>
      <point x="397" y="1018"/>
      <point x="292" y="809"/>
    </contour>
  </outline>
</glyph>
<glyph name="u" format="1">
  <advance width="1491"/>
  <unicode hex="0075"/>
  <outline>
    <contour>
      <point x="668" y="145" type="curve" smooth="yes"/>
      <point x="840" y="145"/>
      <point x="991" y="236"/>
      <point x="1047" y="354" type="curve"/>
      <point x="1047" y="979" type="line"/>
      <point x="904" y="944" type="line" smooth="yes"/>
      <point x="901" y="943"/>
      <point x="896" y="942"/>
      <point x="889" y="942" type="curve" smooth="yes"/>
      <point x="849" y="942"/>
      <point x="807" y="981"/>
      <point x="807" y="1022" type="curve" smooth="yes"/>
      <point x="807" y="1065"/>
      <point x="827" y="1096"/>
      <point x="865" y="1106" type="curve" smooth="yes"/>
      <point x="1184" y="1186" type="line" smooth="yes"/>
      <point x="1188" y="1187"/>
      <point x="1194" y="1188"/>
      <point x="1201" y="1188" type="curve" smooth="yes"/>
      <point x="1232" y="1188"/>
      <point x="1252" y="1171"/>
      <point x="1252" y="1139" type="curve" smooth="yes"/>
      <point x="1252" y="190" type="line"/>
      <point x="1403" y="190" type="line" smooth="yes"/>
      <point x="1448" y="190"/>
      <point x="1473" y="154"/>
      <point x="1473" y="109" type="curve" smooth="yes"/>
      <point x="1473" y="66"/>
      <point x="1454" y="35"/>
      <point x="1416" y="25" type="curve"/>
      <point x="1143" y="-4" type="line"/>
      <point x="1104" y="-4"/>
      <point x="1082" y="18"/>
      <point x="1072" y="84" type="curve" smooth="yes"/>
      <point x="1057" y="182" type="line"/>
      <point x="979" y="67"/>
      <point x="805" y="-25"/>
      <point x="631" y="-25" type="curve" smooth="yes"/>
      <point x="393" y="-25"/>
      <point x="254" y="141"/>
      <point x="254" y="383" type="curve" smooth="yes"/>
      <point x="254" y="979" type="line"/>
      <point x="111" y="944" type="line" smooth="yes"/>
      <point x="108" y="943"/>
      <point x="104" y="942"/>
      <point x="97" y="942" type="curve" smooth="yes"/>
      <point x="57" y="942"/>
      <point x="15" y="981"/>
      <point x="15" y="1022" type="curve" smooth="yes"/>
      <point x="15" y="1065"/>
      <point x="34" y="1096"/>
      <point x="72" y="1106" type="curve" smooth="yes"/>
      <point x="392" y="1186" type="line" smooth="yes"/>
      <point x="396" y="1187"/>
      <point x="401" y="1188"/>
      <point x="408" y="1188" type="curve" smooth="yes"/>
      <point x="439" y="1188"/>
      <point x="459" y="1171"/>
      <point x="459" y="1139" type="curve" smooth="yes"/>
      <point x="459" y="401" type="line" smooth="yes"/>
      <point x="459" y="254"/>
      <point x="526" y="145"/>
    </contour>
  </outline>
</glyph>
<glyph name="v" format="1">
  <advance width="1409"/>
  <unicode hex="0076"/>
  <outline>
    <contour>
      <point x="608" y="1049" type="curve" smooth="yes"/>
      <point x="608" y="999"/>
      <point x="588" y="956"/>
      <point x="537" y="956" type="curve" smooth="yes"/>
      <point x="422" y="956" type="line"/>
      <point x="741" y="272" type="line"/>
      <point x="1034" y="956" type="line"/>
      <point x="938" y="956" type="line" smooth="yes"/>
      <point x="887" y="956"/>
      <point x="866" y="999"/>
      <point x="866" y="1049" type="curve" smooth="yes"/>
      <point x="866" y="1093"/>
      <point x="893" y="1133"/>
      <point x="940" y="1133" type="curve" smooth="yes"/>
      <point x="1337" y="1133" type="line" smooth="yes"/>
      <point x="1394" y="1133"/>
      <point x="1419" y="1098"/>
      <point x="1419" y="1047" type="curve" smooth="yes"/>
      <point x="1419" y="998"/>
      <point x="1395" y="956"/>
      <point x="1343" y="956" type="curve" smooth="yes"/>
      <point x="1212" y="956" type="line"/>
      <point x="836" y="117" type="line"/>
      <point x="806" y="61"/>
      <point x="779" y="0"/>
      <point x="715" y="0" type="curve" smooth="yes"/>
      <point x="657" y="0"/>
      <point x="629" y="62"/>
      <point x="598" y="125" type="curve" smooth="yes"/>
      <point x="184" y="956" type="line"/>
      <point x="66" y="956" type="line" smooth="yes"/>
      <point x="15" y="956"/>
      <point x="-10" y="997"/>
      <point x="-10" y="1047" type="curve" smooth="yes"/>
      <point x="-10" y="1098"/>
      <point x="16" y="1133"/>
      <point x="72" y="1133" type="curve" smooth="yes"/>
      <point x="535" y="1133" type="line" smooth="yes"/>
      <point x="582" y="1133"/>
      <point x="608" y="1093"/>
    </contour>
  </outline>
</glyph>
<glyph name="x" format="1">
  <advance width="1523"/>
  <unicode hex="0078"/>
  <outline>
    <contour>
      <point x="857" y="86" type="curve" smooth="yes"/>
      <point x="857" y="135"/>
      <point x="880" y="176"/>
      <point x="932" y="176" type="curve" smooth="yes"/>
      <point x="1049" y="176" type="line"/>
      <point x="752" y="473" type="line"/>
      <point x="435" y="176" type="line"/>
      <point x="513" y="176" type="line" smooth="yes"/>
      <point x="564" y="176"/>
      <point x="584" y="134"/>
      <point x="584" y="84" type="curve" smooth="yes"/>
      <point x="584" y="40"/>
      <point x="558" y="0"/>
      <point x="511" y="0" type="curve" smooth="yes"/>
      <point x="105" y="0" type="line" smooth="yes"/>
      <point x="49" y="0"/>
      <point x="23" y="35"/>
      <point x="23" y="86" type="curve" smooth="yes"/>
      <point x="23" y="135"/>
      <point x="47" y="176"/>
      <point x="99" y="176" type="curve" smooth="yes"/>
      <point x="234" y="176" type="line"/>
      <point x="652" y="575" type="line"/>
      <point x="277" y="956" type="line"/>
      <point x="126" y="956" type="line" smooth="yes"/>
      <point x="70" y="956"/>
      <point x="44" y="992"/>
      <point x="44" y="1043" type="curve" smooth="yes"/>
      <point x="44" y="1092"/>
      <point x="67" y="1133"/>
      <point x="119" y="1133" type="curve" smooth="yes"/>
      <point x="554" y="1133" type="line" smooth="yes"/>
      <point x="605" y="1133"/>
      <point x="625" y="1091"/>
      <point x="625" y="1041" type="curve" smooth="yes"/>
      <point x="625" y="997"/>
      <point x="599" y="956"/>
      <point x="552" y="956" type="curve" smooth="yes"/>
      <point x="515" y="956" type="line"/>
      <point x="781" y="698" type="line"/>
      <point x="1049" y="956" type="line"/>
      <point x="1000" y="956" type="line" smooth="yes"/>
      <point x="944" y="956"/>
      <point x="918" y="992"/>
      <point x="918" y="1043" type="curve" smooth="yes"/>
      <point x="918" y="1092"/>
      <point x="942" y="1133"/>
      <point x="994" y="1133" type="curve" smooth="yes"/>
      <point x="1428" y="1133" type="line" smooth="yes"/>
      <point x="1479" y="1133"/>
      <point x="1500" y="1091"/>
      <point x="1500" y="1041" type="curve" smooth="yes"/>
      <point x="1500" y="997"/>
      <point x="1473" y="956"/>
      <point x="1426" y="956" type="curve" smooth="yes"/>
      <point x="1266" y="956" type="line"/>
      <point x="885" y="598" type="line"/>
      <point x="1324" y="176" type="line"/>
      <point x="1428" y="176" type="line" smooth="yes"/>
      <point x="1479" y="176"/>
      <point x="1500" y="134"/>
      <point x="1500" y="84" type="curve" smooth="yes"/>
      <point x="1500" y="40"/>
      <point x="1473" y="0"/>
      <point x="1426" y="0" type="curve" smooth="yes"/>
      <point x="939" y="0" type="line" smooth="yes"/>
      <point x="883" y="0"/>
      <point x="857" y="35"/>
    </contour>
  </outline>
</glyph>
<glyph name="z" format="1">
  <advance width="1296"/>
  <unicode hex="007A"/>
  <outline>
    <contour>
      <point x="1108" y="1130" type="line" smooth="yes"/>
      <point x="1167" y="1130"/>
      <point x="1186" y="1112"/>
      <point x="1186" y="1086" type="curve" smooth="yes"/>
      <point x="1186" y="1041"/>
      <point x="1127" y="976"/>
      <point x="1106" y="954" type="curve" smooth="yes"/>
      <point x="363" y="176" type="line"/>
      <point x="1051" y="176" type="line"/>
      <point x="1081" y="467" type="line"/>
      <point x="1083" y="508"/>
      <point x="1118" y="530"/>
      <point x="1157" y="530" type="curve" smooth="yes"/>
      <point x="1212" y="530"/>
      <point x="1246" y="507"/>
      <point x="1246" y="461" type="curve" smooth="yes"/>
      <point x="1246" y="458"/>
      <point x="1245" y="455"/>
      <point x="1245" y="451" type="curve" smooth="yes"/>
      <point x="1204" y="68" type="line" smooth="yes"/>
      <point x="1200" y="32"/>
      <point x="1164" y="0"/>
      <point x="1129" y="0" type="curve" smooth="yes"/>
      <point x="166" y="0" type="line" smooth="yes"/>
      <point x="110" y="0"/>
      <point x="84" y="35"/>
      <point x="84" y="86" type="curve" smooth="yes"/>
      <point x="84" y="118"/>
      <point x="93" y="143"/>
      <point x="109" y="160" type="curve" smooth="yes"/>
      <point x="848" y="954" type="line"/>
      <point x="301" y="954" type="line"/>
      <point x="289" y="762" type="line"/>
      <point x="284" y="717"/>
      <point x="253" y="692"/>
      <point x="207" y="692" type="curve" smooth="yes"/>
      <point x="153" y="692"/>
      <point x="127" y="717"/>
      <point x="127" y="769" type="curve" smooth="yes"/>
      <point x="127" y="780" type="line"/>
      <point x="146" y="1063" type="line" smooth="yes"/>
      <point x="148" y="1098"/>
      <point x="178" y="1130"/>
      <point x="213" y="1130" type="curve" smooth="yes"/>
    </contour>
  </outline>
</glyph>
<glyph name="bar" format="1">
  <advance width="778"/>
  <unicode hex="007C"/>
  <outline>
    <contour>
      <point x="314" y="1841" type="curve" smooth="yes"/>
      <point x="363" y="1841"/>
      <point x="395" y="1815"/>
      <point x="400" y="1769" type="curve"/>
      <point x="400" y="-98" type="line" smooth="yes"/>
      <point x="400" y="-140"/>
      <point x="352" y="-164"/>
      <point x="312" y="-164" type="curve" smooth="yes"/>
      <point x="260" y="-164"/>
      <point x="224" y="-142"/>
      <point x="224" y="-82" type="curve" smooth="yes"/>
      <point x="224" y="1769" type="line" smooth="yes"/>
      <point x="224" y="1817"/>
      <point x="268" y="1841"/>
    </contour>
  </outline>
</glyph>
<glyph name="exclamdown" format="1">
  <advance width="728"/>
  <unicode hex="00A1"/>
  <outline>
    <contour>
      <point x="502" y="127" type="curve" smooth="yes"/>
      <point x="502" y="29"/>
      <point x="448" y="-25"/>
      <point x="367" y="-25" type="curve" smooth="yes"/>
      <point x="288" y="-25"/>
      <point x="231" y="29"/>
      <point x="231" y="123" type="curve" smooth="yes"/>
      <point x="231" y="465"/>
      <point x="305" y="794"/>
      <point x="305" y="1157" type="curve" smooth="yes"/>
      <point x="305" y="1191"/>
      <point x="333" y="1219"/>
      <point x="367" y="1219" type="curve" smooth="yes"/>
      <point x="400" y="1219"/>
      <point x="428" y="1191"/>
      <point x="428" y="1157" type="curve" smooth="yes"/>
      <point x="428" y="797"/>
      <point x="502" y="465"/>
    </contour>
    <contour>
      <point x="365" y="1739" type="curve" smooth="yes"/>
      <point x="465" y="1739"/>
      <point x="541" y="1662"/>
      <point x="541" y="1562" type="curve" smooth="yes"/>
      <point x="541" y="1462"/>
      <point x="465" y="1386"/>
      <point x="365" y="1386" type="curve" smooth="yes"/>
      <point x="265" y="1386"/>
      <point x="188" y="1462"/>
      <point x="188" y="1562" type="curve" smooth="yes"/>
      <point x="188" y="1662"/>
      <point x="265" y="1739"/>
    </contour>
  </outline>
</glyph>
<glyph name="cedilla" format="1">
  <advance width="354"/>
  <unicode hex="00B8"/>
  <outline>
    <contour>
      <point x="264" y="0" type="line"/>
      <point x="204" y="-501" type="line"/>
      <point x="196" y="-619"/>
      <point x="127" y="-675"/>
      <point x="62" y="-675" type="curve" smooth="yes"/>
      <point x="4" y="-675"/>
      <point x="-50" y="-629"/>
      <point x="-50" y="-538" type="curve" smooth="yes"/>
      <point x="-50" y="-472"/>
      <point x="106" y="-49"/>
      <point x="136" y="0" type="curve"/>
    </contour>
  </outline>
</glyph>
<glyph name="oslash" format="1">
  <advance width="1363"/>
  <unicode hex="00F8"/>
  <outline>
    <component base=".notdef" xOffset="-27"/>
    <contour>
      <point x="311" y="-212" type="curve" smooth="yes"/>
      <point x="281" y="-212"/>
      <point x="244" y="-187"/>
      <point x="244" y="-156" type="curve" smooth="yes"/>
      <point x="244" y="-149"/>
      <point x="246" y="-143"/>
      <point x="249" y="-137" type="curve" smooth="yes"/>
      <point x="958" y="1344" type="line"/>
      <point x="965" y="1361"/>
      <point x="979" y="1369"/>
      <point x="998" y="1369" type="curve" smooth="yes"/>
      <point x="1028" y="1369"/>
      <point x="1063" y="1346"/>
      <point x="1063" y="1314" type="curve" smooth="yes"/>
      <point x="1063" y="1308"/>
      <point x="1062" y="1302"/>
      <point x="1059" y="1296" type="curve" smooth="yes"/>
      <point x="354" y="-181" type="line" smooth="yes"/>
      <point x="345" y="-200"/>
      <point x="334" y="-212"/>
    </contour>
  </outline>
</glyph>
<glyph name="dotaccent" format="1">
  <advance width="322"/>
  <unicode hex="02D9"/>
  <outline>
    <contour>
      <point x="300" y="206" type="curve" smooth="yes"/>
      <point x="300" y="129"/>
      <point x="240" y="50"/>
      <point x="151" y="50" type="curve" smooth="yes"/>
      <point x="54" y="50"/>
      <point x="1" y="129"/>
      <point x="1" y="206" type="curve" smooth="yes"/>
      <point x="1" y="279"/>
      <point x="49" y="351"/>
      <point x="153" y="351" type="curve"/>
      <point x="153" y="351" type="line"/>
      <point x="245" y="351"/>
      <point x="300" y="280"/>
    </contour>
  </outline>
</glyph>
<glyph name="uni0311" format="1">
  <advance width="654"/>
  <unicode hex="0311"/>
  <outline>
    <contour>
      <point x="53" y="1537" type="curve" smooth="yes"/>
      <point x="27" y="1537"/>
      <point x="0" y="1554"/>
      <point x="0" y="1578" type="curve" smooth="yes"/>
      <point x="0" y="1790"/>
      <point x="148" y="1900"/>
      <point x="296" y="1900" type="curve" smooth="yes"/>
      <point x="444" y="1900"/>
      <point x="592" y="1789"/>
      <point x="592" y="1578" type="curve" smooth="yes"/>
      <point x="592" y="1554"/>
      <point x="565" y="1537"/>
      <point x="539" y="1537" type="curve" smooth="yes"/>
      <point x="521" y="1537"/>
      <point x="503" y="1545"/>
      <point x="496" y="1565" type="curve" smooth="yes"/>
      <point x="450" y="1686"/>
      <point x="377" y="1738"/>
      <point x="296" y="1738" type="curve" smooth="yes"/>
      <point x="215" y="1738"/>
      <point x="142" y="1686"/>
      <point x="96" y="1565" type="curve" smooth="yes"/>
      <point x="89" y="1545"/>
      <point x="71" y="1537"/>
    </contour>
  </outline>
</glyph>
<glyph name="mu" format="1">
  <advance width="1555"/>
  <unicode hex="03BC"/>
  <outline>
    <contour>
      <point x="395" y="-502" type="curve" smooth="yes"/>
      <point x="442" y="-502"/>
      <point x="486" y="-463"/>
      <point x="486" y="-371" type="curve" smooth="yes"/>
      <point x="486" y="-227"/>
      <point x="463" y="-44"/>
      <point x="447" y="100" type="curve"/>
      <point x="494" y="25"/>
      <point x="584" y="-25"/>
      <point x="666" y="-25" type="curve" smooth="yes"/>
      <point x="840" y="-25"/>
      <point x="1014" y="67"/>
      <point x="1092" y="182" type="curve"/>
      <point x="1107" y="84" type="line" smooth="yes"/>
      <point x="1117" y="18"/>
      <point x="1139" y="-4"/>
      <point x="1178" y="-4" type="curve"/>
      <point x="1451" y="25" type="line"/>
      <point x="1489" y="35"/>
      <point x="1508" y="66"/>
      <point x="1508" y="109" type="curve" smooth="yes"/>
      <point x="1508" y="154"/>
      <point x="1483" y="190"/>
      <point x="1438" y="190" type="curve" smooth="yes"/>
      <point x="1287" y="190" type="line"/>
      <point x="1287" y="1139" type="line" smooth="yes"/>
      <point x="1287" y="1171"/>
      <point x="1267" y="1188"/>
      <point x="1236" y="1188" type="curve" smooth="yes"/>
      <point x="1229" y="1188"/>
      <point x="1223" y="1187"/>
      <point x="1219" y="1186" type="curve" smooth="yes"/>
      <point x="900" y="1106" type="line" smooth="yes"/>
      <point x="862" y="1096"/>
      <point x="842" y="1065"/>
      <point x="842" y="1022" type="curve" smooth="yes"/>
      <point x="842" y="981"/>
      <point x="884" y="942"/>
      <point x="924" y="942" type="curve" smooth="yes"/>
      <point x="931" y="942"/>
      <point x="936" y="943"/>
      <point x="939" y="944" type="curve" smooth="yes"/>
      <point x="1082" y="979" type="line"/>
      <point x="1082" y="354" type="line"/>
      <point x="1026" y="236"/>
      <point x="875" y="145"/>
      <point x="703" y="145" type="curve" smooth="yes"/>
      <point x="561" y="145"/>
      <point x="494" y="254"/>
      <point x="494" y="401" type="curve" smooth="yes"/>
      <point x="494" y="1139" type="line" smooth="yes"/>
      <point x="494" y="1171"/>
      <point x="474" y="1188"/>
      <point x="443" y="1188" type="curve" smooth="yes"/>
      <point x="436" y="1188"/>
      <point x="431" y="1187"/>
      <point x="427" y="1186" type="curve" smooth="yes"/>
      <point x="107" y="1106" type="line" smooth="yes"/>
      <point x="69" y="1096"/>
      <point x="50" y="1065"/>
      <point x="50" y="1022" type="curve" smooth="yes"/>
      <point x="50" y="981"/>
      <point x="92" y="942"/>
      <point x="132" y="942" type="curve" smooth="yes"/>
      <point x="139" y="942"/>
      <point x="143" y="943"/>
      <point x="146" y="944" type="curve" smooth="yes"/>
      <point x="289" y="979" type="line"/>
      <point x="289" y="-375" type="line" smooth="yes"/>
      <point x="289" y="-454"/>
      <point x="343" y="-502"/>
    </contour>
  </outline>
</glyph>
<glyph name="ffi" format="1">
  <advance width="2783"/>
  <unicode hex="FB03"/>
  <outline>
    <contour>
      <point x="2399" y="1427" type="curve" smooth="yes"/>
      <point x="2315" y="1427"/>
      <point x="2247" y="1495"/>
      <point x="2247" y="1579" type="curve" smooth="yes"/>
      <point x="2247" y="1663"/>
      <point x="2315" y="1731"/>
      <point x="2399" y="1731" type="curve" smooth="yes"/>
      <point x="2483" y="1731"/>
      <point x="2550" y="1663"/>
      <point x="2550" y="1579" type="curve" smooth="yes"/>
      <point x="2550" y="1495"/>
      <point x="2483" y="1427"/>
    </contour>
    <contour>
      <point x="2091" y="86" type="curve" smooth="yes"/>
      <point x="2091" y="135"/>
      <point x="2115" y="176"/>
      <point x="2167" y="176" type="curve" smooth="yes"/>
      <point x="2304" y="176" type="line"/>
      <point x="2304" y="946" type="line"/>
      <point x="1524" y="946" type="line"/>
      <point x="1526" y="176" type="line"/>
      <point x="1778" y="176" type="line" smooth="yes"/>
      <point x="1829" y="176"/>
      <point x="1850" y="134"/>
      <point x="1850" y="84" type="curve" smooth="yes"/>
      <point x="1850" y="40"/>
      <point x="1823" y="0"/>
      <point x="1776" y="0" type="curve" smooth="yes"/>
      <point x="1106" y="0" type="line" smooth="yes"/>
      <point x="1050" y="0"/>
      <point x="1024" y="35"/>
      <point x="1024" y="86" type="curve" smooth="yes"/>
      <point x="1024" y="135"/>
      <point x="1048" y="176"/>
      <point x="1100" y="176" type="curve" smooth="yes"/>
      <point x="1321" y="176" type="line"/>
      <point x="1321" y="946" type="line"/>
      <point x="564" y="946" type="line"/>
      <point x="564" y="176" type="line"/>
      <point x="817" y="176" type="line" smooth="yes"/>
      <point x="868" y="176"/>
      <point x="889" y="134"/>
      <point x="889" y="84" type="curve" smooth="yes"/>
      <point x="889" y="40"/>
      <point x="862" y="0"/>
      <point x="815" y="0" type="curve" smooth="yes"/>
      <point x="145" y="0" type="line" smooth="yes"/>
      <point x="89" y="0"/>
      <point x="63" y="35"/>
      <point x="63" y="86" type="curve" smooth="yes"/>
      <point x="63" y="135"/>
      <point x="87" y="176"/>
      <point x="139" y="176" type="curve" smooth="yes"/>
      <point x="360" y="176" type="line"/>
      <point x="360" y="946" type="line"/>
      <point x="182" y="946" type="line" smooth="yes"/>
      <point x="126" y="946"/>
      <point x="100" y="981"/>
      <point x="100" y="1032" type="curve" smooth="yes"/>
      <point x="100" y="1081"/>
      <point x="124" y="1122"/>
      <point x="176" y="1122" type="curve" smooth="yes"/>
      <point x="360" y="1122" type="line"/>
      <point x="360" y="1227" type="line" smooth="yes"/>
      <point x="360" y="1580"/>
      <point x="569" y="1739"/>
      <point x="928" y="1739" type="curve" smooth="yes"/>
      <point x="972" y="1739"/>
      <point x="1012" y="1712"/>
      <point x="1012" y="1665" type="curve" smooth="yes"/>
      <point x="1012" y="1493" type="line" smooth="yes"/>
      <point x="1012" y="1437"/>
      <point x="977" y="1411"/>
      <point x="926" y="1411" type="curve" smooth="yes"/>
      <point x="877" y="1411"/>
      <point x="835" y="1435"/>
      <point x="835" y="1487" type="curve" smooth="yes"/>
      <point x="835" y="1556" type="line"/>
      <point x="609" y="1536"/>
      <point x="564" y="1439"/>
      <point x="564" y="1191" type="curve" smooth="yes"/>
      <point x="564" y="1122" type="line"/>
      <point x="1321" y="1122" type="line"/>
      <point x="1321" y="1227" type="line" smooth="yes"/>
      <point x="1321" y="1580"/>
      <point x="1530" y="1739"/>
      <point x="1889" y="1739" type="curve" smooth="yes"/>
      <point x="1933" y="1739"/>
      <point x="1973" y="1712"/>
      <point x="1973" y="1665" type="curve" smooth="yes"/>
      <point x="1973" y="1493" type="line" smooth="yes"/>
      <point x="1973" y="1437"/>
      <point x="1938" y="1411"/>
      <point x="1887" y="1411" type="curve" smooth="yes"/>
      <point x="1838" y="1411"/>
      <point x="1796" y="1435"/>
      <point x="1796" y="1487" type="curve" smooth="yes"/>
      <point x="1796" y="1556" type="line"/>
      <point x="1624" y="1541"/>
      <point x="1522" y="1475"/>
      <point x="1522" y="1284" type="curve"/>
      <point x="1526" y="1122" type="line"/>
      <point x="2458" y="1122" type="line" smooth="yes"/>
      <point x="2489" y="1122"/>
      <point x="2509" y="1105"/>
      <point x="2509" y="1075" type="curve" smooth="yes"/>
      <point x="2509" y="176" type="line"/>
      <point x="2663" y="176" type="line" smooth="yes"/>
      <point x="2714" y="176"/>
      <point x="2734" y="134"/>
      <point x="2734" y="84" type="curve" smooth="yes"/>
      <point x="2734" y="40"/>
      <point x="2708" y="0"/>
      <point x="2661" y="0" type="curve" smooth="yes"/>
      <point x="2173" y="0" type="line" smooth="yes"/>
      <point x="2117" y="0"/>
      <point x="2091" y="35"/>
    </contour>
  </outline>
</glyph>
<glyph name="onesuperior" format="1">
  <advance width="1272"/>
  <outline>
    <contour>
      <point x="790" y="1485" type="line"/>
      <point x="384" y="989" type="line"/>
      <point x="790" y="989" type="line"/>
    </contour>
    <contour>
      <point x="1127" y="560" type="curve" smooth="yes"/>
      <point x="1127" y="530"/>
      <point x="1108" y="500"/>
      <point x="1076" y="500" type="curve" smooth="yes"/>
      <point x="594" y="500" type="line" smooth="yes"/>
      <point x="562" y="500"/>
      <point x="543" y="530"/>
      <point x="543" y="560" type="curve" smooth="yes"/>
      <point x="543" y="595"/>
      <point x="558" y="622"/>
      <point x="593" y="622" type="curve" smooth="yes"/>
      <point x="790" y="622" type="line"/>
      <point x="790" y="880" type="line"/>
      <point x="267" y="880" type="line" smooth="yes"/>
      <point x="238" y="880"/>
      <point x="222" y="906"/>
      <point x="222" y="932" type="curve" smooth="yes"/>
      <point x="222" y="952"/>
      <point x="228" y="970"/>
      <point x="237" y="979" type="curve"/>
      <point x="434" y="1224"/>
      <point x="632" y="1464"/>
      <point x="831" y="1705" type="curve" smooth="yes"/>
      <point x="838" y="1714"/>
      <point x="849" y="1721"/>
      <point x="861" y="1721" type="curve" smooth="yes"/>
      <point x="891" y="1721"/>
      <point x="923" y="1691"/>
      <point x="923" y="1661" type="curve" smooth="yes"/>
      <point x="923" y="989" type="line"/>
      <point x="1124" y="989" type="line" smooth="yes"/>
      <point x="1156" y="989"/>
      <point x="1168" y="964"/>
      <point x="1168" y="932" type="curve" smooth="yes"/>
      <point x="1168" y="906"/>
      <point x="1151" y="880"/>
      <point x="1122" y="880" type="curve" smooth="yes"/>
      <point x="923" y="880" type="line"/>
      <point x="923" y="622" type="line"/>
      <point x="1078" y="622" type="line" smooth="yes"/>
      <point x="1113" y="622"/>
      <point x="1127" y="595"/>
    </contour>
  </outline>
</glyph>
